# xmcd
# Track frame offsets:
# 150
# 10896
# 27602
# 45086
# 61679
# 75192
# 86251
# 101949
# 122222
# 137445
#
# Disc length: 2090 seconds
# Revision: 0
# Processed by: cddbd v1.4PL0 Copyright (c) Steve Scherf et al.
# Submitted via: VisiTrax 2.9.5.180 - For more info visit www.synapsa.com
#
DISCID=6c08280a
DTITLE=Various Artist - New Country Vol. 17 Sept-Oct 2002
DYEAR=2002
DGENRE=
TTITLE0=Texarkana - Trailer park trash
TTITLE1=Betty Lou Sammons - Those stolen moments
TTITLE2=San - The call
TTITLE3=Russell Lynch - Long lonely road
TTITLE4=Ronny Miller - Kickin' back
TTITLE5=Ekaine Akins - I'll get over you
TTITLE6=Rebel Hearts - Colorado
TTITLE7=Kelly Soencer - Chuga choo choo
TTITLE8=Flowers and Pane - Bring it on home
TTITLE9=San - America stands
EXTD=
EXTT0=
EXTT1=
EXTT2=
EXTT3=
EXTT4=
EXTT5=
EXTT6=
EXTT7=
EXTT8=
EXTT9=
PLAYORDER=
